<svg width="845" height="414" viewBox="0 0 845 414" fill="none" xmlns="http://www.w3.org/2000/svg">
<rect x="11" y="337" width="268" height="76" rx="14" fill="#FF0000" stroke="black" stroke-width="2"/>
<rect x="289" y="337" width="268" height="76" rx="14" fill="#FFC000" stroke="black" stroke-width="2"/>
<rect x="567" y="337" width="268" height="76" rx="14" fill="#09AF55" stroke="black" stroke-width="2"/>
<rect x="0.5" y="76.5" width="844" height="251" rx="39.5" stroke="white"/>
<path d="M204.488 271V185.065H220.77V271H204.488ZM212.629 167.878C209.613 167.878 207.141 166.913 205.211 164.984C203.281 162.933 202.317 160.401 202.317 157.385C202.317 154.491 203.281 152.078 205.211 150.149C207.141 148.098 209.613 147.073 212.629 147.073C215.644 147.073 218.116 148.098 220.046 150.149C221.976 152.078 222.941 154.491 222.941 157.385C222.941 160.401 221.976 162.933 220.046 164.984C218.116 166.913 215.644 167.878 212.629 167.878ZM305.553 271V220.887C305.553 214.374 303.502 209.006 299.402 204.785C295.301 200.564 289.994 198.453 283.481 198.453C279.139 198.453 275.28 199.418 271.902 201.348C268.525 203.277 265.872 205.931 263.942 209.308C262.012 212.685 261.048 216.545 261.048 220.887L254.354 217.087C254.354 210.574 255.801 204.785 258.696 199.719C261.59 194.654 265.631 190.674 270.817 187.779C276.003 184.764 281.853 183.256 288.366 183.256C294.879 183.256 300.608 184.884 305.553 188.141C310.618 191.397 314.598 195.679 317.493 200.986C320.388 206.172 321.835 211.72 321.835 217.63V271H305.553ZM244.765 271V185.065H261.048V271H244.765ZM380.425 272.809C372.585 272.809 365.469 270.879 359.077 267.02C352.684 263.04 347.619 257.673 343.88 250.918C340.262 244.164 338.452 236.566 338.452 228.123C338.452 219.68 340.262 212.082 343.88 205.328C347.619 198.574 352.624 193.206 358.896 189.226C365.288 185.246 372.464 183.256 380.425 183.256C386.938 183.256 392.727 184.643 397.793 187.417C402.979 190.071 407.14 193.81 410.276 198.634C413.412 203.338 415.16 208.825 415.522 215.097V240.968C415.16 247.119 413.412 252.607 410.276 257.431C407.26 262.256 403.16 266.055 397.973 268.829C392.908 271.482 387.058 272.809 380.425 272.809ZM383.138 257.431C391.219 257.431 397.732 254.718 402.677 249.29C407.622 243.742 410.095 236.686 410.095 228.123C410.095 222.213 408.949 217.087 406.657 212.745C404.486 208.283 401.351 204.845 397.25 202.433C393.149 199.9 388.385 198.634 382.957 198.634C377.53 198.634 372.706 199.9 368.484 202.433C364.384 204.966 361.127 208.464 358.715 212.926C356.423 217.268 355.277 222.274 355.277 227.942C355.277 233.731 356.423 238.857 358.715 243.32C361.127 247.662 364.444 251.099 368.665 253.632C372.887 256.165 377.711 257.431 383.138 257.431ZM409.009 271V247.843L412.085 226.857L409.009 206.051V185.065H425.473V271H409.009ZM504.176 271L464.013 227.038L503.814 185.065H523.534L479.21 231.38L479.934 221.972L525.162 271H504.176ZM449.178 271V141.827H465.46V271H449.178ZM573.594 272.809C565.151 272.809 557.553 270.819 550.799 266.839C544.045 262.859 538.677 257.492 534.697 250.738C530.717 243.863 528.727 236.204 528.727 227.761C528.727 219.439 530.717 211.961 534.697 205.328C538.677 198.574 544.045 193.206 550.799 189.226C557.553 185.246 565.151 183.256 573.594 183.256C581.916 183.256 589.454 185.246 596.208 189.226C603.083 193.086 608.511 198.393 612.491 205.147C616.471 211.901 618.461 219.439 618.461 227.761C618.461 236.204 616.471 243.863 612.491 250.738C608.511 257.492 603.083 262.859 596.208 266.839C589.454 270.819 581.916 272.809 573.594 272.809ZM573.594 257.07C579.021 257.07 583.846 255.803 588.067 253.27C592.289 250.738 595.605 247.3 598.018 242.958C600.43 238.496 601.636 233.43 601.636 227.761C601.636 222.213 600.369 217.268 597.837 212.926C595.424 208.584 592.108 205.207 587.886 202.795C583.786 200.262 579.021 198.996 573.594 198.996C568.167 198.996 563.342 200.262 559.121 202.795C554.899 205.207 551.583 208.584 549.17 212.926C546.758 217.268 545.552 222.213 545.552 227.761C545.552 233.43 546.758 238.496 549.17 242.958C551.583 247.3 554.899 250.738 559.121 253.27C563.342 255.803 568.167 257.07 573.594 257.07ZM697.594 271V220.887C697.594 214.374 695.544 209.006 691.443 204.785C687.343 200.564 682.036 198.453 675.523 198.453C671.181 198.453 667.321 199.418 663.944 201.348C660.567 203.277 657.914 205.931 655.984 209.308C654.054 212.685 653.089 216.545 653.089 220.887L646.395 217.087C646.395 210.574 647.843 204.785 650.737 199.719C653.632 194.654 657.672 190.674 662.859 187.779C668.045 184.764 673.894 183.256 680.407 183.256C686.92 183.256 692.649 184.884 697.594 188.141C702.66 191.397 706.64 195.679 709.535 200.986C712.429 206.172 713.877 211.72 713.877 217.63V271H697.594ZM636.807 271V185.065H653.089V271H636.807Z" fill="white"/>
<path d="M104.835 271V145.445H121.841V271H104.835ZM116.414 215.821V200.262H181.905V215.821H116.414ZM116.414 161.004V145.445H184.98V161.004H116.414Z" fill="white"/>
<path d="M82.928 55.672C79.8667 55.672 77.1227 54.9253 74.696 53.432C72.3067 51.9013 70.4027 49.7173 68.984 46.88C67.6027 44.0427 66.912 40.6267 66.912 36.632C66.912 32.6747 67.6213 29.2773 69.04 26.44C70.4587 23.6027 72.4 21.4187 74.864 19.888C77.328 18.3573 80.1093 17.592 83.208 17.592C85.448 17.592 87.4267 18.0587 89.144 18.992C90.8613 19.888 92.2427 20.9333 93.288 22.128L90.768 25.152C89.7973 24.1067 88.696 23.2667 87.464 22.632C86.232 21.9973 84.832 21.68 83.264 21.68C80.9493 21.68 78.9147 22.296 77.16 23.528C75.4427 24.7227 74.0987 26.4213 73.128 28.624C72.1947 30.8267 71.728 33.4587 71.728 36.52C71.728 39.5813 72.1947 42.2507 73.128 44.528C74.0613 46.768 75.368 48.504 77.048 49.736C78.7653 50.968 80.7813 51.584 83.096 51.584C84.8507 51.584 86.4187 51.2107 87.8 50.464C89.1813 49.7173 90.4507 48.7093 91.608 47.44L94.184 50.352C92.728 52.032 91.0853 53.3387 89.256 54.272C87.4267 55.2053 85.3173 55.672 82.928 55.672ZM111.168 55.672C108.966 55.672 106.894 55.112 104.952 53.992C103.048 52.872 101.499 51.248 100.304 49.12C99.1469 46.992 98.5682 44.4347 98.5682 41.448C98.5682 38.3867 99.1469 35.792 100.304 33.664C101.499 31.536 103.048 29.912 104.952 28.792C106.894 27.672 108.966 27.112 111.168 27.112C113.408 27.112 115.48 27.672 117.384 28.792C119.288 29.912 120.819 31.536 121.976 33.664C123.171 35.792 123.768 38.3867 123.768 41.448C123.768 44.4347 123.171 46.992 121.976 49.12C120.819 51.248 119.288 52.872 117.384 53.992C115.48 55.112 113.408 55.672 111.168 55.672ZM111.168 51.864C113.52 51.864 115.406 50.912 116.824 49.008C118.28 47.0667 119.008 44.5467 119.008 41.448C119.008 38.312 118.28 35.7733 116.824 33.832C115.406 31.8907 113.52 30.92 111.168 30.92C108.854 30.92 106.968 31.8907 105.512 33.832C104.056 35.7733 103.328 38.312 103.328 41.448C103.328 44.5467 104.056 47.0667 105.512 49.008C106.968 50.912 108.854 51.864 111.168 51.864ZM130.936 55V27.784H134.744L135.136 31.704H135.304C136.61 30.3973 137.992 29.3147 139.448 28.456C140.904 27.56 142.565 27.112 144.432 27.112C147.306 27.112 149.397 28.0267 150.704 29.856C152.048 31.648 152.72 34.28 152.72 37.752V55H148.128V38.368C148.128 35.8293 147.717 33.9813 146.896 32.824C146.074 31.6667 144.768 31.088 142.976 31.088C141.594 31.088 140.344 31.4427 139.224 32.152C138.141 32.8613 136.909 33.9067 135.528 35.288V55H130.936ZM168.673 55.672C166.731 55.672 164.883 55.3173 163.129 54.608C161.374 53.8613 159.843 52.9653 158.537 51.92L160.833 48.84C162.027 49.7733 163.259 50.5573 164.529 51.192C165.798 51.7893 167.235 52.088 168.841 52.088C170.633 52.088 171.977 51.6773 172.873 50.856C173.769 49.9973 174.217 48.9893 174.217 47.832C174.217 46.8987 173.899 46.1147 173.265 45.48C172.667 44.8453 171.883 44.3227 170.913 43.912C169.979 43.464 169.009 43.0533 168.001 42.68C166.731 42.1947 165.481 41.6533 164.249 41.056C163.017 40.4213 162.009 39.6187 161.225 38.648C160.441 37.64 160.049 36.3707 160.049 34.84C160.049 32.6373 160.87 30.808 162.513 29.352C164.193 27.8587 166.507 27.112 169.457 27.112C171.137 27.112 172.705 27.4107 174.161 28.008C175.617 28.6053 176.867 29.3333 177.913 30.192L175.673 33.104C174.739 32.3947 173.769 31.816 172.761 31.368C171.753 30.92 170.651 30.696 169.457 30.696C167.739 30.696 166.47 31.088 165.649 31.872C164.865 32.656 164.473 33.5707 164.473 34.616C164.473 35.4747 164.753 36.184 165.313 36.744C165.873 37.2667 166.601 37.7333 167.497 38.144C168.393 38.5173 169.345 38.9093 170.353 39.32C171.659 39.8053 172.947 40.3653 174.217 41C175.486 41.5973 176.531 42.4187 177.353 43.464C178.211 44.472 178.641 45.8347 178.641 47.552C178.641 49.008 178.249 50.352 177.465 51.584C176.718 52.816 175.598 53.8053 174.105 54.552C172.649 55.2987 170.838 55.672 168.673 55.672ZM192.974 55.672C190.099 55.672 187.99 54.776 186.646 52.984C185.302 51.1547 184.63 48.504 184.63 45.032V27.784H189.278V44.416C189.278 46.9547 189.67 48.8027 190.454 49.96C191.275 51.1173 192.582 51.696 194.374 51.696C195.792 51.696 197.043 51.3413 198.126 50.632C199.246 49.8853 200.44 48.7093 201.71 47.104V27.784H206.302V55H202.494L202.102 50.744H201.934C200.664 52.2373 199.32 53.432 197.902 54.328C196.483 55.224 194.84 55.672 192.974 55.672ZM220.355 55.672C218.637 55.672 217.387 55.1493 216.603 54.104C215.856 53.0213 215.483 51.4907 215.483 49.512V15.128H220.075V49.848C220.075 50.5573 220.205 51.08 220.467 51.416C220.728 51.7147 221.027 51.864 221.363 51.864C221.512 51.864 221.643 51.864 221.755 51.864C221.904 51.8267 222.109 51.7893 222.371 51.752L222.987 55.224C222.688 55.3733 222.333 55.4853 221.923 55.56C221.512 55.6347 220.989 55.672 220.355 55.672ZM238.324 55.672C235.412 55.672 233.377 54.832 232.22 53.152C231.1 51.472 230.54 49.288 230.54 46.6V31.536H226.508V28.064L230.764 27.784L231.324 20.168H235.188V27.784H242.524V31.536H235.188V46.656C235.188 48.336 235.487 49.6427 236.084 50.576C236.719 51.472 237.82 51.92 239.388 51.92C239.873 51.92 240.396 51.8453 240.956 51.696C241.516 51.5093 242.02 51.3413 242.468 51.192L243.364 54.664C242.617 54.9253 241.796 55.1493 240.9 55.336C240.041 55.56 239.183 55.672 238.324 55.672ZM248.678 55V27.784H253.27V55H248.678ZM251.03 22.184C250.134 22.184 249.387 21.9227 248.79 21.4C248.23 20.84 247.95 20.0933 247.95 19.16C247.95 18.264 248.23 17.536 248.79 16.976C249.387 16.416 250.134 16.136 251.03 16.136C251.926 16.136 252.654 16.416 253.214 16.976C253.811 17.536 254.11 18.264 254.11 19.16C254.11 20.0933 253.811 20.84 253.214 21.4C252.654 21.9227 251.926 22.184 251.03 22.184ZM262.459 55V27.784H266.267L266.659 31.704H266.827C268.134 30.3973 269.515 29.3147 270.971 28.456C272.427 27.56 274.089 27.112 275.955 27.112C278.83 27.112 280.921 28.0267 282.227 29.856C283.571 31.648 284.243 34.28 284.243 37.752V55H279.651V38.368C279.651 35.8293 279.241 33.9813 278.419 32.824C277.598 31.6667 276.291 31.088 274.499 31.088C273.118 31.088 271.867 31.4427 270.747 32.152C269.665 32.8613 268.433 33.9067 267.051 35.288V55H262.459ZM302.268 67.544C298.946 67.544 296.239 66.9093 294.148 65.64C292.058 64.3707 291.012 62.56 291.012 60.208C291.012 59.0507 291.367 57.9307 292.076 56.848C292.786 55.8027 293.756 54.8693 294.988 54.048V53.824C294.316 53.4133 293.738 52.8347 293.252 52.088C292.804 51.3413 292.58 50.4453 292.58 49.4C292.58 48.2427 292.898 47.2347 293.532 46.376C294.167 45.5173 294.839 44.8453 295.548 44.36V44.136C294.652 43.3893 293.831 42.3813 293.084 41.112C292.375 39.8427 292.02 38.4053 292.02 36.8C292.02 34.8213 292.487 33.104 293.42 31.648C294.354 30.192 295.604 29.072 297.172 28.288C298.74 27.504 300.439 27.112 302.268 27.112C303.015 27.112 303.724 27.1867 304.396 27.336C305.068 27.448 305.647 27.5973 306.132 27.784H315.596V31.312H309.996C310.631 31.9093 311.154 32.712 311.564 33.72C312.012 34.6907 312.236 35.7547 312.236 36.912C312.236 38.8533 311.788 40.5333 310.892 41.952C309.996 43.3707 308.802 44.472 307.308 45.256C305.815 46.0027 304.135 46.376 302.268 46.376C300.812 46.376 299.45 46.0587 298.18 45.424C297.695 45.8347 297.284 46.3013 296.948 46.824C296.612 47.3093 296.444 47.9253 296.444 48.672C296.444 49.5307 296.78 50.24 297.452 50.8C298.162 51.36 299.431 51.64 301.26 51.64H306.524C309.698 51.64 312.068 52.1627 313.636 53.208C315.242 54.216 316.044 55.8587 316.044 58.136C316.044 59.816 315.484 61.3653 314.364 62.784C313.244 64.2027 311.658 65.3413 309.604 66.2C307.551 67.096 305.106 67.544 302.268 67.544ZM302.268 43.296C303.836 43.296 305.18 42.7173 306.3 41.56C307.458 40.3653 308.036 38.7787 308.036 36.8C308.036 34.8213 307.476 33.272 306.356 32.152C305.236 31.032 303.874 30.472 302.268 30.472C300.663 30.472 299.3 31.032 298.18 32.152C297.06 33.272 296.5 34.8213 296.5 36.8C296.5 38.7787 297.06 40.3653 298.18 41.56C299.338 42.7173 300.7 43.296 302.268 43.296ZM302.94 64.352C305.554 64.352 307.644 63.7733 309.212 62.616C310.78 61.496 311.564 60.2267 311.564 58.808C311.564 57.5387 311.079 56.6613 310.108 56.176C309.175 55.6907 307.831 55.448 306.076 55.448H301.372C300.85 55.448 300.271 55.4107 299.636 55.336C299.039 55.2613 298.442 55.1493 297.844 55C296.874 55.7093 296.164 56.456 295.716 57.24C295.268 58.024 295.044 58.808 295.044 59.592C295.044 61.048 295.735 62.2053 297.116 63.064C298.535 63.9227 300.476 64.352 302.94 64.352ZM319.007 42.736V39.208H331.887V42.736H319.007ZM341.359 55V40.776L330.327 18.264H335.311L340.071 28.624C340.668 29.968 341.247 31.2933 341.807 32.6C342.404 33.9067 343.001 35.2507 343.599 36.632H343.823C344.457 35.2507 345.092 33.9067 345.727 32.6C346.361 31.2933 346.959 29.968 347.519 28.624L352.223 18.264H357.095L346.063 40.776V55H341.359ZM369.895 55.672C367.692 55.672 365.62 55.112 363.679 53.992C361.775 52.872 360.225 51.248 359.031 49.12C357.873 46.992 357.295 44.4347 357.295 41.448C357.295 38.3867 357.873 35.792 359.031 33.664C360.225 31.536 361.775 29.912 363.679 28.792C365.62 27.672 367.692 27.112 369.895 27.112C372.135 27.112 374.207 27.672 376.111 28.792C378.015 29.912 379.545 31.536 380.703 33.664C381.897 35.792 382.495 38.3867 382.495 41.448C382.495 44.4347 381.897 46.992 380.703 49.12C379.545 51.248 378.015 52.872 376.111 53.992C374.207 55.112 372.135 55.672 369.895 55.672ZM369.895 51.864C372.247 51.864 374.132 50.912 375.551 49.008C377.007 47.0667 377.735 44.5467 377.735 41.448C377.735 38.312 377.007 35.7733 375.551 33.832C374.132 31.8907 372.247 30.92 369.895 30.92C367.58 30.92 365.695 31.8907 364.239 33.832C362.783 35.7733 362.055 38.312 362.055 41.448C362.055 44.5467 362.783 47.0667 364.239 49.008C365.695 50.912 367.58 51.864 369.895 51.864ZM397.614 55.672C394.74 55.672 392.63 54.776 391.286 52.984C389.942 51.1547 389.27 48.504 389.27 45.032V27.784H393.918V44.416C393.918 46.9547 394.31 48.8027 395.094 49.96C395.916 51.1173 397.222 51.696 399.014 51.696C400.433 51.696 401.684 51.3413 402.766 50.632C403.886 49.8853 405.081 48.7093 406.35 47.104V27.784H410.942V55H407.134L406.742 50.744H406.574C405.305 52.2373 403.961 53.432 402.542 54.328C401.124 55.224 399.481 55.672 397.614 55.672ZM442.086 55.672C439.697 55.672 437.532 55.112 435.59 53.992C433.649 52.872 432.118 51.248 430.998 49.12C429.878 46.992 429.318 44.4347 429.318 41.448C429.318 38.3867 429.916 35.792 431.11 33.664C432.342 31.536 433.948 29.912 435.926 28.792C437.942 27.672 440.108 27.112 442.422 27.112C444.214 27.112 445.745 27.4293 447.014 28.064C448.321 28.6987 449.441 29.4453 450.374 30.304L448.022 33.328C447.238 32.6187 446.398 32.04 445.502 31.592C444.644 31.144 443.673 30.92 442.59 30.92C440.948 30.92 439.473 31.368 438.166 32.264C436.897 33.1227 435.889 34.3547 435.142 35.96C434.433 37.528 434.078 39.3573 434.078 41.448C434.078 44.5467 434.844 47.0667 436.374 49.008C437.942 50.912 439.977 51.864 442.478 51.864C443.748 51.864 444.924 51.6027 446.006 51.08C447.089 50.52 448.041 49.8667 448.862 49.12L450.878 52.2C449.646 53.2827 448.284 54.1413 446.79 54.776C445.297 55.3733 443.729 55.672 442.086 55.672ZM462.598 55.672C460.321 55.672 458.417 55 456.886 53.656C455.393 52.2747 454.646 50.3707 454.646 47.944C454.646 44.9573 455.972 42.68 458.622 41.112C461.31 39.5067 465.548 38.3867 471.334 37.752C471.334 36.5947 471.166 35.4933 470.83 34.448C470.532 33.4027 469.972 32.5627 469.15 31.928C468.366 31.256 467.228 30.92 465.734 30.92C464.166 30.92 462.692 31.2187 461.31 31.816C459.929 32.4133 458.697 33.0853 457.614 33.832L455.822 30.64C457.092 29.8187 458.641 29.0347 460.47 28.288C462.337 27.504 464.353 27.112 466.518 27.112C469.841 27.112 472.249 28.1387 473.742 30.192C475.236 32.208 475.982 34.9147 475.982 38.312V55H472.174L471.782 51.752H471.614C470.345 52.7973 468.945 53.712 467.414 54.496C465.921 55.28 464.316 55.672 462.598 55.672ZM463.942 51.976C465.249 51.976 466.481 51.6587 467.638 51.024C468.796 50.3893 470.028 49.4933 471.334 48.336V40.776C466.817 41.336 463.644 42.176 461.814 43.296C460.022 44.416 459.126 45.8533 459.126 47.608C459.126 49.1387 459.593 50.2587 460.526 50.968C461.46 51.64 462.598 51.976 463.942 51.976ZM484.545 55V27.784H488.353L488.745 31.704H488.913C490.22 30.3973 491.601 29.3147 493.057 28.456C494.513 27.56 496.174 27.112 498.041 27.112C500.916 27.112 503.006 28.0267 504.313 29.856C505.657 31.648 506.329 34.28 506.329 37.752V55H501.737V38.368C501.737 35.8293 501.326 33.9813 500.505 32.824C499.684 31.6667 498.377 31.088 496.585 31.088C495.204 31.088 493.953 31.4427 492.833 32.152C491.75 32.8613 490.518 33.9067 489.137 35.288V55H484.545ZM526.829 55V18.264H537.749C540.25 18.264 542.434 18.5627 544.301 19.16C546.205 19.7573 547.68 20.7093 548.725 22.016C549.808 23.3227 550.349 25.0587 550.349 27.224C550.349 29.0533 549.882 30.7147 548.949 32.208C548.053 33.664 546.728 34.672 544.973 35.232V35.456C547.176 35.8667 548.968 36.8 550.349 38.256C551.768 39.712 552.477 41.7093 552.477 44.248C552.477 46.6373 551.88 48.6347 550.685 50.24C549.528 51.8453 547.904 53.04 545.813 53.824C543.722 54.608 541.296 55 538.533 55H526.829ZM531.477 33.888H536.909C540.045 33.888 542.304 33.3467 543.685 32.264C545.066 31.1813 545.757 29.7067 545.757 27.84C545.757 25.712 545.029 24.2 543.573 23.304C542.154 22.408 540.008 21.96 537.133 21.96H531.477V33.888ZM531.477 51.304H537.861C541.034 51.304 543.498 50.7253 545.253 49.568C547.008 48.3733 547.885 46.544 547.885 44.08C547.885 41.8027 547.008 40.1413 545.253 39.096C543.536 38.0133 541.072 37.472 537.861 37.472H531.477V51.304ZM566.079 34.448L564.343 40.048H575.375L573.639 34.448C572.967 32.3947 572.332 30.36 571.735 28.344C571.138 26.2907 570.54 24.2 569.943 22.072H569.719C569.159 24.2 568.58 26.2907 567.983 28.344C567.386 30.36 566.751 32.3947 566.079 34.448ZM554.879 55L567.311 18.264H572.575L585.007 55H580.023L576.551 43.8H563.167L559.639 55H554.879ZM590.212 55V18.264H595.028L608.3 41.336L612.276 48.952H612.5C612.388 47.0853 612.257 45.1627 612.108 43.184C611.996 41.168 611.94 39.1893 611.94 37.248V18.264H616.364V55H611.548L598.22 31.872L594.244 24.312H594.02C594.169 26.1413 594.3 28.0267 594.412 29.968C594.561 31.9093 594.636 33.8507 594.636 35.792V55H590.212ZM626.47 55V18.264H631.118V36.688H631.286L646.574 18.264H651.838L640.358 32.264L653.63 55H648.422L637.446 35.904L631.118 43.352V55H626.47ZM680.246 55.672C678.044 55.672 675.972 55.112 674.03 53.992C672.126 52.872 670.577 51.248 669.382 49.12C668.225 46.992 667.646 44.4347 667.646 41.448C667.646 38.3867 668.225 35.792 669.382 33.664C670.577 31.536 672.126 29.912 674.03 28.792C675.972 27.672 678.044 27.112 680.246 27.112C682.486 27.112 684.558 27.672 686.462 28.792C688.366 29.912 689.897 31.536 691.054 33.664C692.249 35.792 692.846 38.3867 692.846 41.448C692.846 44.4347 692.249 46.992 691.054 49.12C689.897 51.248 688.366 52.872 686.462 53.992C684.558 55.112 682.486 55.672 680.246 55.672ZM680.246 51.864C682.598 51.864 684.484 50.912 685.902 49.008C687.358 47.0667 688.086 44.5467 688.086 41.448C688.086 38.312 687.358 35.7733 685.902 33.832C684.484 31.8907 682.598 30.92 680.246 30.92C677.932 30.92 676.046 31.8907 674.59 33.832C673.134 35.7733 672.406 38.312 672.406 41.448C672.406 44.5467 673.134 47.0667 674.59 49.008C676.046 50.912 677.932 51.864 680.246 51.864ZM700.014 55V27.784H703.822L704.214 31.704H704.382C705.689 30.3973 707.07 29.3147 708.526 28.456C709.982 27.56 711.643 27.112 713.51 27.112C716.385 27.112 718.475 28.0267 719.782 29.856C721.126 31.648 721.798 34.28 721.798 37.752V55H717.206V38.368C717.206 35.8293 716.795 33.9813 715.974 32.824C715.153 31.6667 713.846 31.088 712.054 31.088C710.673 31.088 709.422 31.4427 708.302 32.152C707.219 32.8613 705.987 33.9067 704.606 35.288V55H700.014ZM742.298 55V18.264H746.946V55H742.298ZM764.625 55V22.184H753.537V18.264H780.417V22.184H769.329V55H764.625Z" fill="white"/>
</svg>
